<?xml version="1.0" encoding="UTF-8" standalone="no"?>
<!DOCTYPE svg PUBLIC "-//W3C//DTD SVG 1.1//EN" "http://www.w3.org/Graphics/SVG/1.1/DTD/svg11.dtd">
<svg width="100%" height="100%" viewBox="0 0 353 379" version="1.1" xmlns="http://www.w3.org/2000/svg" xmlns:xlink="http://www.w3.org/1999/xlink" xml:space="preserve" xmlns:serif="http://www.serif.com/" style="fill-rule:evenodd;clip-rule:evenodd;stroke-linecap:square;stroke-miterlimit:1.5;">
    <g transform="matrix(1.4484,0,0,1.4484,-366.847,759.679)">
        <g transform="matrix(1,0,0,1,-81.25,-87)">
            <rect x="340.75" y="-431.271" width="231" height="248.548" style="fill:white;"/>
            <clipPath id="_clip1">
                <rect x="340.75" y="-431.271" width="231" height="248.548"/>
            </clipPath>
            <g clip-path="url(#_clip1)">
                <g transform="matrix(0.405451,0,0,0.405451,459.222,-326.272)">
                    <path d="M184,359.2C187.424,375.101 202.755,368.944 214.4,367.431C225.067,366.046 236.546,368.799 247.2,369.528C259.487,370.37 271.772,368.859 284,368.801C292.754,368.758 314.79,367.948 314.281,381.6C313.779,395.061 292.507,398.221 282.4,397.528C261.278,396.082 240.918,389.348 220,386.631C204.361,384.6 186.797,385.142 171.2,387.439C155.808,389.707 125.838,403.062 136.366,423.999C139.866,430.962 150.71,435.146 156.238,427.894C159.477,423.642 158.602,417.939 163.284,414.484C170.54,409.129 180.186,408.8 188.8,408.8C228.624,408.8 267.43,427.245 307.2,419.197C324.935,415.608 345.731,405.18 347.127,384.8C348.245,368.477 335.871,356.406 323.2,348.424C317.115,344.591 307.908,341.556 304.986,334.399C302.678,328.746 306.013,319.498 306.858,313.6C308.333,303.297 307.321,292.004 307.197,281.6C306.898,256.531 297.76,230.437 285.571,208.8C277.206,193.952 266.125,180.103 250.4,172.712C240.53,168.073 223.306,168.626 216.883,159.196C207.596,145.56 198.952,132.298 199.409,115.2C199.668,105.492 204.214,96.17 204.872,86.4C205.077,83.354 206.224,79.081 203.888,76.495C200.487,72.73 191.385,81.529 188.8,83.539C178.254,91.743 172.036,91.179 159.2,91.2C155.296,91.206 150.826,92.509 147.2,90.75C140.731,87.614 135.48,82.214 129.6,78.18C127.791,76.939 124.452,74.352 122.194,76.037C119.679,77.914 120.302,84.498 120.586,87.2C121.621,97.013 127.567,107.855 126.049,117.6C124.798,125.628 122.454,133.548 125.236,141.6C127.683,148.682 134.367,154.178 135.685,161.6C136.705,167.347 132.549,173.648 131.369,179.2C129.795,186.598 130.94,194.261 132.53,201.6C139.041,231.667 157.795,258.246 159.169,289.6C159.803,304.102 163.742,325.346 158.924,339.188C156.139,347.186 138.253,343.614 142.994,355.999C148.626,370.713 174.004,362.582 184,359.2Z" style="fill:rgb(156,207,246);"/>
                </g>
                <g transform="matrix(0.564572,-0.236659,-0.386593,-0.922251,35.4482,29.9501)">
                    <path d="M1174.38,291.5C1185.92,269.457 1192,244.453 1192,219C1192,138.972 1133.08,74 1060.5,74C987.923,74 929,138.972 929,219C929,244.453 935.076,269.457 946.618,291.5L1174.38,291.5Z" style="fill:rgb(156,207,246);"/>
                </g>
                <g transform="matrix(-0.564572,-0.236659,0.386593,-0.922251,885.957,31.4638)">
                    <path d="M1174.38,291.5C1185.92,269.457 1192,244.453 1192,219C1192,138.972 1133.08,74 1060.5,74C987.923,74 929,138.972 929,219C929,244.453 935.076,269.457 946.618,291.5L1174.38,291.5Z" style="fill:rgb(156,207,246);"/>
                </g>
            </g>
            <rect x="340.75" y="-431.271" width="231" height="248.548" style="fill:none;stroke:rgb(156,207,246);stroke-width:6.9px;"/>
        </g>
        <g transform="matrix(1.63518,0,0,1.63518,-498.187,76.9357)">
            <path d="M534,-364L534,-212" style="fill:none;stroke:rgb(156,207,246);stroke-width:4.22px;"/>
        </g>
        <g transform="matrix(1,0,0,1,51.75,-73)">
            <path d="M207.75,-320.997L438.75,-320.997" style="fill:none;stroke:rgb(156,207,246);stroke-width:6.9px;"/>
        </g>
    </g>
</svg>
