<?xml version="1.0" encoding="UTF-8" standalone="no"?>
<!DOCTYPE svg PUBLIC "-//W3C//DTD SVG 1.1//EN" "http://www.w3.org/Graphics/SVG/1.1/DTD/svg11.dtd">
<svg width="100%" height="100%" viewBox="0 0 289 216" version="1.1" xmlns="http://www.w3.org/2000/svg" xmlns:xlink="http://www.w3.org/1999/xlink" xml:space="preserve" xmlns:serif="http://www.serif.com/" style="fill-rule:evenodd;clip-rule:evenodd;stroke-linecap:square;stroke-miterlimit:1.5;">
    <g transform="matrix(0.469999,0,0,0.469999,-199.87,-82.3463)">
        <g transform="matrix(1,0,0,1,264,-122.327)">
            <path d="M468.5,302.327C468.5,302.327 401,404.014 401,447.594C401,484.848 431.246,515.094 468.5,515.094C505.754,515.094 536,484.848 536,447.594C536,404.014 468.5,302.327 468.5,302.327Z" style="fill:rgb(57,160,237);stroke:white;stroke-width:5.32px;"/>
        </g>
        <g transform="matrix(-0.407724,-0.407724,0.327833,-0.327833,872.027,658.044)">
            <path d="M529,241C513.546,241 501,267.661 501,300.5C501,333.339 513.546,360 529,360C524.364,346.117 520.6,324.235 520.6,300.5C520.6,276.765 524.364,254.883 529,241Z" style="fill:white;stroke:white;stroke-width:10.17px;"/>
        </g>
    </g>
    <g transform="matrix(0.133168,0,0,0.133168,-19.3411,104.116)">
        <text x="560.791px" y="434px" style="font-family:'AlfaSlabOne-Regular', 'Alfa Slab One';font-size:442.784px;">S</text>
        <text x="853.914px" y="434px" style="font-family:'AlfaSlabOne-Regular', 'Alfa Slab One';font-size:442.784px;">h</text>
        <text x="1160.32px" y="434px" style="font-family:'AlfaSlabOne-Regular', 'Alfa Slab One';font-size:442.784px;">i</text>
        <text x="1313.52px" y="434px" style="font-family:'AlfaSlabOne-Regular', 'Alfa Slab One';font-size:442.784px;">n</text>
        <text x="1619.49px" y="434px" style="font-family:'AlfaSlabOne-Regular', 'Alfa Slab One';font-size:442.784px;">y</text>
        <text x="139.925px" y="828.049px" style="font-family:'AlfaSlabOne-Regular', 'Alfa Slab One';font-size:442.784px;">W</text>
        <text x="657.982px" y="828.049px" style="font-family:'AlfaSlabOne-Regular', 'Alfa Slab One';font-size:442.784px;">i</text>
        <text x="811.185px" y="828.049px" style="font-family:'AlfaSlabOne-Regular', 'Alfa Slab One';font-size:442.784px;">n</text>
        <text x="1115.82px" y="828.049px" style="font-family:'AlfaSlabOne-Regular', 'Alfa Slab One';font-size:442.784px;">d</text>
        <text x="1396.1px" y="828.049px" style="font-family:'AlfaSlabOne-Regular', 'Alfa Slab One';font-size:442.784px;">o</text>
        <text x="1668.86px" y="828.049px" style="font-family:'AlfaSlabOne-Regular', 'Alfa Slab One';font-size:442.784px;">w</text>
        <text x="2090.39px" y="828.049px" style="font-family:'AlfaSlabOne-Regular', 'Alfa Slab One';font-size:442.784px;">s</text>
    </g>
</svg>
