<?xml version="1.0" encoding="UTF-8" standalone="no"?>
<!DOCTYPE svg PUBLIC "-//W3C//DTD SVG 1.1//EN" "http://www.w3.org/Graphics/SVG/1.1/DTD/svg11.dtd">
<svg width="100%" height="100%" viewBox="0 0 289 216" version="1.1" xmlns="http://www.w3.org/2000/svg" xmlns:xlink="http://www.w3.org/1999/xlink" xml:space="preserve" xmlns:serif="http://www.serif.com/" style="fill-rule:evenodd;clip-rule:evenodd;stroke-linecap:square;stroke-miterlimit:1.5;">
    <g transform="matrix(0.469999,0,0,0.469999,-199.87,-82.3463)">
        <g transform="matrix(1,0,0,1,264,-122.327)">
            <path d="M468.5,302.327C468.5,302.327 401,404.014 401,447.594C401,484.848 431.246,515.094 468.5,515.094C505.754,515.094 536,484.848 536,447.594C536,404.014 468.5,302.327 468.5,302.327Z" style="fill:rgb(57,160,237);stroke:white;stroke-width:5.32px;"/>
        </g>
        <g transform="matrix(-0.407724,-0.407724,0.327833,-0.327833,872.027,658.044)">
            <path d="M529,241C513.546,241 501,267.661 501,300.5C501,333.339 513.546,360 529,360C524.364,346.117 520.6,324.235 520.6,300.5C520.6,276.765 524.364,254.883 529,241Z" style="fill:white;stroke:white;stroke-width:10.17px;"/>
        </g>
    </g>
    <g transform="matrix(0.133168,0,0,0.133168,-19.3411,104.116)">
        <g transform="matrix(442.784,0,0,442.784,560.791,434)">
            <path d="M0.33,0.014C0.266,0.014 0.205,0.008 0.149,-0.003C0.092,-0.014 0.048,-0.026 0.017,-0.04L0.017,-0.238L0.237,-0.238C0.237,-0.217 0.242,-0.202 0.251,-0.193C0.26,-0.184 0.277,-0.179 0.302,-0.179C0.323,-0.179 0.338,-0.182 0.346,-0.189C0.356,-0.195 0.36,-0.204 0.36,-0.217C0.36,-0.228 0.356,-0.237 0.347,-0.245C0.338,-0.252 0.323,-0.26 0.302,-0.268L0.216,-0.298C0.142,-0.326 0.089,-0.359 0.057,-0.397C0.024,-0.435 0.008,-0.486 0.008,-0.551C0.008,-0.63 0.034,-0.69 0.086,-0.731C0.137,-0.772 0.223,-0.792 0.344,-0.792C0.402,-0.792 0.457,-0.786 0.507,-0.775C0.559,-0.763 0.6,-0.747 0.631,-0.728L0.631,-0.549L0.431,-0.549C0.431,-0.582 0.41,-0.599 0.369,-0.599C0.349,-0.599 0.335,-0.597 0.327,-0.592C0.318,-0.587 0.314,-0.578 0.314,-0.565C0.314,-0.554 0.319,-0.545 0.329,-0.538C0.338,-0.531 0.354,-0.524 0.376,-0.517L0.463,-0.487C0.534,-0.463 0.585,-0.432 0.618,-0.394C0.65,-0.355 0.666,-0.305 0.666,-0.243C0.666,-0.158 0.637,-0.094 0.581,-0.051C0.524,-0.008 0.44,0.014 0.33,0.014Z" style="fill-rule:nonzero;"/>
        </g>
        <g transform="matrix(442.784,0,0,442.784,853.914,434)">
            <path d="M0.682,-0.164L0.682,-0L0.366,-0L0.366,-0.164L0.408,-0.164L0.408,-0.328C0.408,-0.35 0.403,-0.366 0.394,-0.377C0.385,-0.387 0.371,-0.392 0.352,-0.392C0.312,-0.392 0.292,-0.371 0.292,-0.328L0.292,-0.164L0.334,-0.164L0.334,-0L0.018,-0L0.018,-0.164L0.062,-0.164L0.062,-0.614L0.018,-0.614L0.018,-0.778L0.292,-0.778L0.292,-0.478C0.317,-0.509 0.343,-0.532 0.372,-0.547C0.401,-0.562 0.434,-0.57 0.472,-0.57C0.527,-0.57 0.569,-0.553 0.597,-0.518C0.624,-0.483 0.638,-0.436 0.638,-0.375L0.638,-0.164L0.682,-0.164Z" style="fill-rule:nonzero;"/>
        </g>
        <g transform="matrix(442.784,0,0,442.784,1160.32,434)">
            <path d="M0.066,-0.611L0.066,-0.778L0.27,-0.778L0.27,-0.611L0.066,-0.611ZM0.018,-0L0.018,-0.164L0.062,-0.164L0.062,-0.392L0.018,-0.392L0.018,-0.556L0.292,-0.556L0.292,-0.164L0.336,-0.164L0.336,-0L0.018,-0Z" style="fill-rule:nonzero;"/>
        </g>
        <g transform="matrix(442.784,0,0,442.784,1313.52,434)">
            <path d="M0.682,-0.164L0.682,-0L0.366,-0L0.366,-0.164L0.408,-0.164L0.408,-0.328C0.408,-0.35 0.403,-0.366 0.394,-0.377C0.385,-0.387 0.371,-0.392 0.352,-0.392C0.312,-0.392 0.292,-0.371 0.292,-0.328L0.292,-0.164L0.334,-0.164L0.334,-0L0.018,-0L0.018,-0.164L0.062,-0.164L0.062,-0.392L0.018,-0.392L0.018,-0.556L0.292,-0.556L0.292,-0.478C0.34,-0.539 0.4,-0.57 0.472,-0.57C0.527,-0.57 0.569,-0.553 0.597,-0.518C0.624,-0.483 0.638,-0.436 0.638,-0.375L0.638,-0.164L0.682,-0.164Z" style="fill-rule:nonzero;"/>
        </g>
        <g transform="matrix(442.784,0,0,442.784,1619.49,434)">
            <path d="M0.62,-0.556L0.62,-0.392L0.582,-0.392L0.451,-0.045C0.418,0.042 0.381,0.108 0.339,0.151C0.297,0.195 0.242,0.217 0.173,0.217C0.145,0.217 0.117,0.214 0.088,0.208C0.059,0.203 0.033,0.195 0.01,0.185L0.01,0.004L0.148,0.004L0.148,0.014C0.148,0.031 0.157,0.039 0.174,0.039C0.189,0.039 0.201,0.032 0.209,0.017L0.051,-0.392L0.013,-0.392L0.013,-0.556L0.31,-0.556L0.31,-0.392L0.276,-0.392L0.328,-0.236L0.376,-0.392L0.342,-0.392L0.342,-0.556L0.62,-0.556Z" style="fill-rule:nonzero;"/>
        </g>
        <g transform="matrix(442.784,0,0,442.784,139.925,828.049)">
            <path d="M0.875,-0.778L1.195,-0.778L1.195,-0.614L1.155,-0.614L1.006,-0L0.707,-0L0.616,-0.432L0.606,-0.432L0.51,-0L0.211,-0L0.052,-0.614L0.012,-0.614L0.012,-0.778L0.382,-0.778L0.382,-0.614L0.344,-0.614L0.383,-0.359L0.393,-0.359L0.488,-0.778L0.776,-0.778L0.864,-0.359L0.874,-0.359L0.913,-0.614L0.875,-0.614L0.875,-0.778Z" style="fill-rule:nonzero;"/>
        </g>
        <g transform="matrix(442.784,0,0,442.784,657.982,828.049)">
            <path d="M0.066,-0.611L0.066,-0.778L0.27,-0.778L0.27,-0.611L0.066,-0.611ZM0.018,-0L0.018,-0.164L0.062,-0.164L0.062,-0.392L0.018,-0.392L0.018,-0.556L0.292,-0.556L0.292,-0.164L0.336,-0.164L0.336,-0L0.018,-0Z" style="fill-rule:nonzero;"/>
        </g>
        <g transform="matrix(442.784,0,0,442.784,811.185,828.049)">
            <path d="M0.682,-0.164L0.682,-0L0.366,-0L0.366,-0.164L0.408,-0.164L0.408,-0.328C0.408,-0.35 0.403,-0.366 0.394,-0.377C0.385,-0.387 0.371,-0.392 0.352,-0.392C0.312,-0.392 0.292,-0.371 0.292,-0.328L0.292,-0.164L0.334,-0.164L0.334,-0L0.018,-0L0.018,-0.164L0.062,-0.164L0.062,-0.392L0.018,-0.392L0.018,-0.556L0.292,-0.556L0.292,-0.478C0.34,-0.539 0.4,-0.57 0.472,-0.57C0.527,-0.57 0.569,-0.553 0.597,-0.518C0.624,-0.483 0.638,-0.436 0.638,-0.375L0.638,-0.164L0.682,-0.164Z" style="fill-rule:nonzero;"/>
        </g>
        <g transform="matrix(442.784,0,0,442.784,1115.82,828.049)">
            <path d="M0.215,0.014C0.147,0.014 0.096,-0.011 0.062,-0.062C0.027,-0.113 0.01,-0.185 0.01,-0.278C0.01,-0.371 0.027,-0.443 0.062,-0.494C0.096,-0.545 0.147,-0.57 0.215,-0.57C0.249,-0.57 0.279,-0.562 0.306,-0.545C0.332,-0.528 0.353,-0.509 0.37,-0.488L0.37,-0.614L0.311,-0.614L0.311,-0.778L0.6,-0.778L0.6,-0.164L0.644,-0.164L0.644,-0L0.37,-0L0.37,-0.068C0.353,-0.047 0.332,-0.028 0.306,-0.011C0.279,0.006 0.249,0.014 0.215,0.014ZM0.312,-0.164C0.331,-0.164 0.346,-0.169 0.356,-0.18C0.365,-0.19 0.37,-0.206 0.37,-0.228L0.37,-0.328C0.37,-0.35 0.365,-0.366 0.356,-0.377C0.346,-0.387 0.331,-0.392 0.312,-0.392C0.293,-0.392 0.278,-0.387 0.269,-0.377C0.259,-0.366 0.254,-0.35 0.254,-0.328L0.254,-0.228C0.254,-0.206 0.259,-0.19 0.269,-0.18C0.278,-0.169 0.293,-0.164 0.312,-0.164Z" style="fill-rule:nonzero;"/>
        </g>
        <g transform="matrix(442.784,0,0,442.784,1396.1,828.049)">
            <path d="M0.316,0.014C0.221,0.014 0.147,-0.011 0.094,-0.061C0.041,-0.11 0.014,-0.183 0.014,-0.278C0.014,-0.373 0.041,-0.446 0.094,-0.496C0.147,-0.545 0.221,-0.57 0.316,-0.57C0.412,-0.57 0.486,-0.545 0.539,-0.495C0.592,-0.444 0.618,-0.372 0.618,-0.278C0.618,-0.183 0.591,-0.11 0.538,-0.061C0.485,-0.011 0.411,0.014 0.316,0.014ZM0.316,-0.164C0.335,-0.164 0.35,-0.169 0.36,-0.18C0.369,-0.19 0.374,-0.206 0.374,-0.228L0.374,-0.328C0.374,-0.35 0.369,-0.366 0.36,-0.377C0.35,-0.387 0.335,-0.392 0.316,-0.392C0.297,-0.392 0.282,-0.387 0.273,-0.377C0.263,-0.366 0.258,-0.35 0.258,-0.328L0.258,-0.228C0.258,-0.206 0.263,-0.19 0.273,-0.18C0.282,-0.169 0.297,-0.164 0.316,-0.164Z" style="fill-rule:nonzero;"/>
        </g>
        <g transform="matrix(442.784,0,0,442.784,1668.86,828.049)">
            <path d="M0.184,-0L0.052,-0.392L0.01,-0.392L0.01,-0.556L0.319,-0.556L0.319,-0.392L0.277,-0.392L0.313,-0.236L0.323,-0.236L0.396,-0.556L0.58,-0.556L0.653,-0.236L0.663,-0.236L0.698,-0.392L0.656,-0.392L0.656,-0.556L0.946,-0.556L0.946,-0.392L0.904,-0.392L0.777,-0L0.534,-0L0.479,-0.278L0.469,-0.278L0.414,-0L0.184,-0Z" style="fill-rule:nonzero;"/>
        </g>
        <g transform="matrix(442.784,0,0,442.784,2090.39,828.049)">
            <path d="M0.261,0.014C0.177,0.014 0.096,0.001 0.018,-0.026L0.018,-0.174L0.18,-0.174L0.18,-0.164C0.18,-0.132 0.2,-0.116 0.241,-0.116C0.277,-0.116 0.295,-0.128 0.295,-0.153C0.295,-0.166 0.29,-0.176 0.28,-0.183C0.269,-0.19 0.251,-0.195 0.225,-0.2L0.175,-0.209C0.07,-0.228 0.018,-0.287 0.018,-0.387C0.018,-0.445 0.04,-0.49 0.084,-0.522C0.128,-0.554 0.187,-0.57 0.262,-0.57C0.345,-0.57 0.416,-0.556 0.473,-0.528L0.473,-0.389L0.321,-0.389L0.321,-0.399C0.321,-0.412 0.317,-0.423 0.308,-0.43C0.299,-0.437 0.285,-0.44 0.268,-0.44C0.235,-0.44 0.218,-0.429 0.218,-0.408C0.218,-0.397 0.223,-0.388 0.232,-0.382C0.241,-0.376 0.258,-0.37 0.283,-0.365L0.34,-0.354C0.399,-0.343 0.442,-0.322 0.467,-0.291C0.492,-0.26 0.505,-0.221 0.505,-0.173C0.505,-0.112 0.484,-0.066 0.442,-0.034C0.399,-0.002 0.339,0.014 0.261,0.014Z" style="fill-rule:nonzero;"/>
        </g>
    </g>
</svg>
