<?xml version="1.0" encoding="UTF-8" standalone="no"?>
<!DOCTYPE svg PUBLIC "-//W3C//DTD SVG 1.1//EN" "http://www.w3.org/Graphics/SVG/1.1/DTD/svg11.dtd">
<svg width="100%" height="100%" viewBox="0 0 882 370" version="1.1" xmlns="http://www.w3.org/2000/svg" xmlns:xlink="http://www.w3.org/1999/xlink" xml:space="preserve" xmlns:serif="http://www.serif.com/" style="fill-rule:evenodd;clip-rule:evenodd;stroke-linejoin:round;stroke-miterlimit:2;">
    <g transform="matrix(1.4484,0,0,1.4484,165.891,755.666)">
        <g transform="matrix(1,0,0,1,-81.25,-87)">
            <rect x="340.75" y="-431.271" width="231" height="248.548" style="fill:rgb(252,245,199);"/>
            <clipPath id="_clip1">
                <rect x="340.75" y="-431.271" width="231" height="248.548"/>
            </clipPath>
            <g clip-path="url(#_clip1)">
                <g transform="matrix(0.405451,0,0,0.405451,459.222,-326.272)">
                    <path d="M184,359.2C187.424,375.101 202.755,368.944 214.4,367.431C225.067,366.046 236.546,368.799 247.2,369.528C259.487,370.37 271.772,368.859 284,368.801C292.754,368.758 314.79,367.948 314.281,381.6C313.779,395.061 292.507,398.221 282.4,397.528C261.278,396.082 240.918,389.348 220,386.631C204.361,384.6 186.797,385.142 171.2,387.439C155.808,389.707 125.838,403.062 136.366,423.999C139.866,430.962 150.71,435.146 156.238,427.894C159.477,423.642 158.602,417.939 163.284,414.484C170.54,409.129 180.186,408.8 188.8,408.8C228.624,408.8 267.43,427.245 307.2,419.197C324.935,415.608 345.731,405.18 347.127,384.8C348.245,368.477 335.871,356.406 323.2,348.424C317.115,344.591 307.908,341.556 304.986,334.399C302.678,328.746 306.013,319.498 306.858,313.6C308.333,303.297 307.321,292.004 307.197,281.6C306.898,256.531 297.76,230.437 285.571,208.8C277.206,193.952 266.125,180.103 250.4,172.712C240.53,168.073 223.306,168.626 216.883,159.196C207.596,145.56 198.952,132.298 199.409,115.2C199.668,105.492 204.214,96.17 204.872,86.4C205.077,83.354 206.224,79.081 203.888,76.495C200.487,72.73 191.385,81.529 188.8,83.539C178.254,91.743 172.036,91.179 159.2,91.2C155.296,91.206 150.826,92.509 147.2,90.75C140.731,87.614 135.48,82.214 129.6,78.18C127.791,76.939 124.452,74.352 122.194,76.037C119.679,77.914 120.302,84.498 120.586,87.2C121.621,97.013 127.567,107.855 126.049,117.6C124.798,125.628 122.454,133.548 125.236,141.6C127.683,148.682 134.367,154.178 135.685,161.6C136.705,167.347 132.549,173.648 131.369,179.2C129.795,186.598 130.94,194.261 132.53,201.6C139.041,231.667 157.795,258.246 159.169,289.6C159.803,304.102 163.742,325.346 158.924,339.188C156.139,347.186 138.253,343.614 142.994,355.999C148.626,370.713 174.004,362.582 184,359.2Z" style="fill:rgb(51,55,69);stroke:rgb(51,55,69);stroke-width:1.7px;"/>
                </g>
                <g transform="matrix(0.564572,-0.236659,-0.386593,-0.922251,35.4482,29.9501)">
                    <path d="M1174.38,291.5C1185.92,269.457 1192,244.453 1192,219C1192,138.972 1133.08,74 1060.5,74C987.923,74 929,138.972 929,219C929,244.453 935.076,269.457 946.618,291.5L1174.38,291.5Z" style="fill:rgb(244,202,224);stroke:rgb(57,160,237);stroke-width:1.11px;stroke-linecap:round;stroke-miterlimit:1.5;"/>
                </g>
                <g transform="matrix(-0.564572,-0.236659,0.386593,-0.922251,885.957,31.4638)">
                    <path d="M1174.38,291.5C1185.92,269.457 1192,244.453 1192,219C1192,138.972 1133.08,74 1060.5,74C987.923,74 929,138.972 929,219C929,244.453 935.076,269.457 946.618,291.5L1174.38,291.5Z" style="fill:rgb(244,202,224);stroke:rgb(57,160,237);stroke-width:1.11px;stroke-linecap:round;stroke-miterlimit:1.5;"/>
                </g>
            </g>
            <rect x="340.75" y="-431.271" width="231" height="248.548" style="fill:none;stroke:rgb(57,160,237);stroke-width:6.9px;stroke-linecap:square;stroke-linejoin:miter;stroke-miterlimit:1.5;"/>
        </g>
        <g transform="matrix(1.63518,0,0,1.63518,-498.187,76.9357)">
            <path d="M534,-364L534,-212" style="fill:none;stroke:rgb(57,160,237);stroke-width:4.22px;stroke-linecap:square;stroke-linejoin:miter;stroke-miterlimit:1.5;"/>
        </g>
        <g transform="matrix(1,0,0,1,51.75,-73)">
            <path d="M207.75,-320.997L438.75,-320.997" style="fill:none;stroke:rgb(57,160,237);stroke-width:6.9px;stroke-linecap:square;stroke-linejoin:miter;stroke-miterlimit:1.5;"/>
        </g>
    </g>
    <g transform="matrix(1.50595,0,0,1.50595,-3861.19,-3701.1)">
        <g transform="matrix(0.457336,0,0,0.465763,2521.53,2361.94)">
            <path d="M190.136,440.99C172.003,440.99 154.861,439.432 138.711,436.315C122.561,433.198 110.142,429.657 101.453,425.69L101.453,369.59L163.786,369.59C163.786,375.445 165.109,379.695 167.753,382.34C170.397,384.984 175.214,386.307 182.203,386.307C188.059,386.307 192.261,385.409 194.811,383.615C197.361,381.82 198.636,379.129 198.636,375.54C198.636,372.518 197.409,369.92 194.953,367.748C192.497,365.576 188.247,363.357 182.203,361.09L157.836,352.59C136.87,344.657 121.806,335.307 112.645,324.54C103.484,313.773 98.903,299.229 98.903,280.907C98.903,258.618 106.222,241.665 120.861,230.048C135.5,218.432 159.914,212.623 194.103,212.623C210.536,212.623 225.978,214.276 240.428,217.582C254.878,220.887 266.542,225.279 275.42,230.757L275.42,281.473L218.753,281.473C218.753,272.029 212.897,267.307 201.186,267.307C195.52,267.307 191.506,268.015 189.145,269.432C186.784,270.848 185.603,273.351 185.603,276.94C185.603,280.151 186.972,282.701 189.711,284.59C192.45,286.479 196.936,288.462 203.17,290.54L227.82,299.04C247.842,305.84 262.434,314.67 271.595,325.532C280.756,336.393 285.336,350.607 285.336,368.173C285.336,392.162 277.261,410.295 261.111,422.573C244.961,434.851 221.303,440.99 190.136,440.99Z" style="fill:white;fill-rule:nonzero;stroke:black;stroke-width:5.75px;"/>
        </g>
        <g transform="matrix(0.457336,0,0,0.465763,2520.2,2361.94)">
            <path d="M480.836,390.557L480.836,437.023L391.303,437.023L391.303,390.557L403.203,390.557L403.203,344.09C403.203,337.857 401.881,333.276 399.236,330.348C396.592,327.42 392.625,325.957 387.336,325.957C376.003,325.957 370.336,332.001 370.336,344.09L370.336,390.557L382.236,390.557L382.236,437.023L292.703,437.023L292.703,390.557L305.17,390.557L305.17,263.057L292.703,263.057L292.703,216.59L370.336,216.59L370.336,301.59C377.325,292.901 384.881,286.384 393.003,282.04C401.125,277.695 410.57,275.523 421.336,275.523C437.014,275.523 448.772,280.434 456.611,290.257C464.45,300.079 468.37,313.584 468.37,330.773L468.37,390.557L480.836,390.557Z" style="fill:white;fill-rule:nonzero;stroke:black;stroke-width:5.75px;"/>
        </g>
        <g transform="matrix(0.457336,0,0,0.465763,2520.2,2361.94)">
            <path d="M503.503,263.907L503.503,216.59L561.303,216.59L561.303,263.907L503.503,263.907ZM489.903,437.023L489.903,390.557L502.37,390.557L502.37,325.957L489.903,325.957L489.903,279.49L567.536,279.49L567.536,390.557L580.003,390.557L580.003,437.023L489.903,437.023Z" style="fill:white;fill-rule:nonzero;stroke:black;stroke-width:5.75px;"/>
        </g>
        <g transform="matrix(0.457336,0,0,0.465763,2520.2,2361.94)">
            <path d="M776.07,390.557L776.07,437.023L686.536,437.023L686.536,390.557L698.436,390.557L698.436,344.09C698.436,337.857 697.114,333.276 694.47,330.348C691.825,327.42 687.859,325.957 682.57,325.957C671.236,325.957 665.57,332.001 665.57,344.09L665.57,390.557L677.47,390.557L677.47,437.023L587.936,437.023L587.936,390.557L600.403,390.557L600.403,325.957L587.936,325.957L587.936,279.49L665.57,279.49L665.57,301.59C679.17,284.212 696.17,275.523 716.57,275.523C732.247,275.523 744.006,280.434 751.845,290.257C759.684,300.079 763.603,313.584 763.603,330.773L763.603,390.557L776.07,390.557Z" style="fill:white;fill-rule:nonzero;stroke:black;stroke-width:5.75px;"/>
        </g>
        <g transform="matrix(0.457336,0,0,0.465763,2520.2,2361.94)">
            <path d="M955.703,279.49L955.703,325.957L944.936,325.957L907.82,424.273C898.564,449.018 887.986,467.576 876.086,479.948C864.186,492.32 848.509,498.507 829.053,498.507C821.12,498.507 813.092,497.704 804.97,496.098C796.847,494.493 789.481,492.273 782.87,489.44L782.87,438.157L821.97,438.157L821.97,440.99C821.97,445.712 824.425,448.073 829.336,448.073C833.681,448.073 836.986,445.995 839.253,441.84L794.486,325.957L783.72,325.957L783.72,279.49L867.87,279.49L867.87,325.957L858.236,325.957L872.97,370.157L886.57,325.957L876.936,325.957L876.936,279.49L955.703,279.49Z" style="fill:white;fill-rule:nonzero;stroke:black;stroke-width:5.75px;"/>
        </g>
        <g transform="matrix(0.400945,0,0,0.408333,2525.18,2510.39)">
            <path d="M344.553,216.59L435.22,216.59L435.22,263.057L423.886,263.057L381.67,437.023L296.953,437.023L271.17,314.623L268.336,314.623L241.136,437.023L156.42,437.023L111.37,263.057L100.036,263.057L100.036,216.59L204.87,216.59L204.87,263.057L194.103,263.057L205.153,335.307L207.986,335.307L234.903,216.59L316.503,216.59L341.436,335.307L344.27,335.307L355.32,263.057L344.553,263.057L344.553,216.59Z" style="fill:white;fill-rule:nonzero;stroke:black;stroke-width:6.56px;"/>
            <g transform="matrix(1,0,0,1,-9.93703,0)">
                <path d="M457.32,263.907L457.32,216.59L515.12,216.59L515.12,263.907L457.32,263.907ZM443.72,437.023L443.72,390.557L456.186,390.557L456.186,325.957L443.72,325.957L443.72,279.49L521.353,279.49L521.353,390.557L533.82,390.557L533.82,437.023L443.72,437.023Z" style="fill:white;fill-rule:nonzero;stroke:black;stroke-width:6.56px;"/>
            </g>
            <g transform="matrix(1,0,0,1,-8.28086,0)">
                <path d="M729.886,390.557L729.886,437.023L640.353,437.023L640.353,390.557L652.253,390.557L652.253,344.09C652.253,337.857 650.931,333.276 648.286,330.348C645.642,327.42 641.675,325.957 636.386,325.957C625.053,325.957 619.386,332.001 619.386,344.09L619.386,390.557L631.286,390.557L631.286,437.023L541.753,437.023L541.753,390.557L554.22,390.557L554.22,325.957L541.753,325.957L541.753,279.49L619.386,279.49L619.386,301.59C632.986,284.212 649.986,275.523 670.386,275.523C686.064,275.523 697.822,280.434 705.661,290.257C713.5,300.079 717.42,313.584 717.42,330.773L717.42,390.557L729.886,390.557Z" style="fill:white;fill-rule:nonzero;stroke:black;stroke-width:6.56px;"/>
            </g>
            <g transform="matrix(1,0,0,1,-9.93703,0)">
                <path d="M794.77,440.99C775.503,440.99 761.006,433.812 751.278,419.457C741.55,405.101 736.686,384.701 736.686,358.257C736.686,331.812 741.55,311.412 751.278,297.057C761.006,282.701 775.503,275.523 794.77,275.523C804.403,275.523 812.95,277.884 820.411,282.607C827.872,287.329 833.964,292.712 838.686,298.757L838.686,263.057L821.97,263.057L821.97,216.59L903.853,216.59L903.853,390.557L916.32,390.557L916.32,437.023L838.686,437.023L838.686,417.757C833.964,423.801 827.872,429.184 820.411,433.907C812.95,438.629 804.403,440.99 794.77,440.99ZM822.253,390.557C827.731,390.557 831.839,389.093 834.578,386.165C837.317,383.237 838.686,378.657 838.686,372.423L838.686,344.09C838.686,337.857 837.317,333.276 834.578,330.348C831.839,327.42 827.731,325.957 822.253,325.957C816.775,325.957 812.667,327.42 809.928,330.348C807.189,333.276 805.82,337.857 805.82,344.09L805.82,372.423C805.82,378.657 807.189,383.237 809.928,386.165C812.667,389.093 816.775,390.557 822.253,390.557Z" style="fill:white;fill-rule:nonzero;stroke:black;stroke-width:6.56px;"/>
            </g>
            <g transform="matrix(1,0,0,1,-11.5932,0)">
                <path d="M1009.82,440.99C982.997,440.99 962.031,433.954 946.92,419.882C931.809,405.809 924.253,385.268 924.253,358.257C924.253,331.245 931.809,310.704 946.92,296.632C962.031,282.559 982.997,275.523 1009.82,275.523C1037.02,275.523 1058.08,282.654 1073,296.915C1087.92,311.176 1095.39,331.623 1095.39,358.257C1095.39,385.268 1087.83,405.809 1072.72,419.882C1057.61,433.954 1036.64,440.99 1009.82,440.99ZM1009.82,390.557C1015.3,390.557 1019.41,389.093 1022.14,386.165C1024.88,383.237 1026.25,378.657 1026.25,372.423L1026.25,344.09C1026.25,337.857 1024.88,333.276 1022.14,330.348C1019.41,327.42 1015.3,325.957 1009.82,325.957C1004.34,325.957 1000.23,327.42 997.495,330.348C994.756,333.276 993.386,337.857 993.386,344.09L993.386,372.423C993.386,378.657 994.756,383.237 997.495,386.165C1000.23,389.093 1004.34,390.557 1009.82,390.557Z" style="fill:white;fill-rule:nonzero;stroke:black;stroke-width:6.56px;"/>
            </g>
            <g transform="matrix(1,0,0,1,-13.2494,0)">
                <path d="M1151.49,437.023L1114.09,325.957L1102.19,325.957L1102.19,279.49L1189.74,279.49L1189.74,325.957L1177.84,325.957L1188.04,370.157L1190.87,370.157L1211.55,279.49L1263.69,279.49L1284.37,370.157L1287.2,370.157L1297.12,325.957L1285.22,325.957L1285.22,279.49L1367.39,279.49L1367.39,325.957L1355.49,325.957L1319.5,437.023L1250.65,437.023L1235.07,358.257L1232.24,358.257L1216.65,437.023L1151.49,437.023Z" style="fill:white;fill-rule:nonzero;stroke:black;stroke-width:6.56px;"/>
            </g>
            <g transform="matrix(1,0,0,1,-13.2494,0)">
                <path d="M1444.17,440.99C1420.37,440.99 1397.42,437.212 1375.32,429.657L1375.32,387.723L1421.22,387.723L1421.22,390.557C1421.22,399.623 1426.98,404.157 1438.5,404.157C1448.7,404.157 1453.8,400.662 1453.8,393.673C1453.8,389.895 1452.34,387.062 1449.41,385.173C1446.48,383.284 1441.34,381.679 1433.97,380.357L1419.8,377.807C1390.15,372.518 1375.32,355.707 1375.32,327.373C1375.32,310.94 1381.55,298.19 1394.02,289.123C1406.49,280.057 1423.3,275.523 1444.45,275.523C1468.06,275.523 1487.99,279.49 1504.24,287.423L1504.24,326.807L1461.17,326.807L1461.17,323.973C1461.17,320.195 1459.89,317.315 1457.35,315.332C1454.8,313.348 1451.06,312.357 1446.15,312.357C1436.71,312.357 1431.99,315.379 1431.99,321.423C1431.99,324.634 1433.31,327.09 1435.95,328.79C1438.6,330.49 1443.41,332.095 1450.4,333.607L1466.55,336.723C1483.36,339.934 1495.36,345.884 1502.54,354.573C1509.71,363.262 1513.3,374.407 1513.3,388.007C1513.3,405.195 1507.31,418.323 1495.31,427.39C1483.32,436.457 1466.27,440.99 1444.17,440.99Z" style="fill:white;fill-rule:nonzero;stroke:black;stroke-width:6.56px;"/>
            </g>
        </g>
    </g>
</svg>
